<svg width="68" height="11" viewBox="0 0 68 11" fill="none" xmlns="http://www.w3.org/2000/svg">
<path fill-rule="evenodd" clip-rule="evenodd" d="M19.6948 8.68583L23.2142 10.649L22.2802 6.94899L25.3896 4.45951L21.295 4.13846L19.6948 0.648987L18.0945 4.13846L14 4.45951L17.1093 6.94899L16.1754 10.649L19.6948 8.68583Z" fill="#F8475F"/>
<path fill-rule="evenodd" clip-rule="evenodd" d="M33.6948 8.68583L37.2142 10.649L36.2802 6.94899L39.3896 4.45951L35.295 4.13846L33.6948 0.648987L32.0945 4.13846L28 4.45951L31.1093 6.94899L30.1754 10.649L33.6948 8.68583Z" fill="#F8475F"/>
<path fill-rule="evenodd" clip-rule="evenodd" d="M5.69481 8.68583L9.21418 10.649L8.28024 6.94899L11.3896 4.45951L7.29504 4.13846L5.69481 0.648987L4.09458 4.13846L3.05176e-05 4.45951L3.10938 6.94899L2.17544 10.649L5.69481 8.68583Z" fill="#F8475F"/>
<path fill-rule="evenodd" clip-rule="evenodd" d="M47.6948 9.03684L51.2142 11L50.2802 7.3L53.3896 4.81053L49.295 4.48947L47.6948 1L46.0945 4.48947L42 4.81053L45.1093 7.3L44.1754 11L47.6948 9.03684Z" fill="#F8475F"/>
<path fill-rule="evenodd" clip-rule="evenodd" d="M61.6948 9.03684L65.2142 11L64.2802 7.3L67.3896 4.81053L63.295 4.48947L61.6948 1L60.0945 4.48947L56 4.81053L59.1093 7.3L58.1754 11L61.6948 9.03684Z" fill="#F8475F"/>
</svg>
